<?xml version="1.0" encoding="iso-8859-1"?>
<!-- Uploaded to: SVG Repo, www.svgrepo.com, Generator: SVG Repo Mixer Tools -->
<!DOCTYPE svg PUBLIC "-//W3C//DTD SVG 1.1//EN" "http://www.w3.org/Graphics/SVG/1.1/DTD/svg11.dtd">
<svg fill="#000000" height="800px" width="800px" version="1.1" id="Capa_1" xmlns="http://www.w3.org/2000/svg" xmlns:xlink="http://www.w3.org/1999/xlink" 
	 viewBox="0 0 483.75 483.75" xml:space="preserve">
<g>
	<path d="M483.322,325.48l-7.74-38.881c-3.063-15.393-15.108-27.423-30.51-30.469l-10.472-2.07
		c-6.023-1.191-10.746-5.866-11.992-11.883l-1.999-9.62c-0.638-3.08,0.48-6.268,2.905-8.275
		c9.456-7.826,18.117-19.352,23.132-32.959c6.952-1.251,13.292-7.937,15.338-17.141c2.526-11.4-2.496-22.218-11.212-24.154
		c-0.102-0.017-0.205-0.009-0.307-0.017c-2.629-29.611-14.031-51.54-51.965-51.54c-28.912,0-42.43,13.26-48.391,32.976
		c2.969,8.519,3.63,18.408,1.371,28.596c-2.025,9.142-6.465,17.086-12.182,23.447c2.945,4.133,6.82,7.07,11.056,7.833
		c5.015,13.614,13.684,25.133,23.123,32.968c2.425,1.999,3.544,5.187,2.905,8.267l-1.982,9.614
		c-1.246,6.014-5.977,10.698-12.001,11.895l-10.472,2.064c-2.92,0.574-5.574,1.756-8.212,2.944
		c13.433,6.945,24.039,18.849,28.677,33.981l18.084,58.957h71.074c6.646,0,12.943-2.977,17.164-8.119
		C482.927,338.754,484.62,331.999,483.322,325.48z"/>
	<path d="M142.905,260.2c-3.417-1.873-7.126-3.282-11.086-4.069l-10.472-2.07c-6.022-1.191-10.747-5.866-11.99-11.883l-2.001-9.62
		c-0.637-3.08,0.48-6.268,2.906-8.275c9.455-7.826,18.115-19.352,23.132-32.959c5.394-0.967,10.346-5.252,13.282-11.4
		c-4.182-5.7-7.369-12.439-9.016-19.88c-1.188-5.369-1.543-10.645-1.204-15.699c-3.614-26.645-15.778-45.872-51.21-45.872
		c-37.288,0-49.129,21.921-51.916,51.524c-0.118,0.023-0.244,0.016-0.355,0.032c-8.723,1.937-13.738,12.754-11.211,24.154
		c2.039,9.204,8.378,15.89,15.338,17.141c5.015,13.614,13.684,25.133,23.125,32.968c2.424,1.999,3.542,5.187,2.905,8.267
		l-1.985,9.614c-1.243,6.014-5.976,10.698-11.998,11.895l-10.472,2.064c-15.401,3.046-27.448,15.076-30.51,30.469L0.429,325.48
		c-1.301,6.518,0.393,13.273,4.605,18.414c4.222,5.143,10.521,8.119,17.165,8.119h76.459l18.086-58.957
		C121.105,278.846,130.631,267.309,142.905,260.2z"/>
	<path d="M383.501,384.263l-26.525-86.474c-0.66-2.149-2.498-10.88-14.611-20.873c-6.55-5.403-15.117-8.141-24.015-8.369
		c0,0,1.636-14.628-11.534-23.685c-3.676-2.527-14.92-9.786-14.92-9.786c-2.671-1.748-5.732-2.652-8.882-2.652
		c-1.906,0-3.669,0.582-5.41,1.205c-0.825,0.33-1.677,0.637-2.456,1.078c0-0.008,0-0.008,0-0.008l-0.377-1.818
		c3.818-2.686,7.574-5.834,11.22-9.33c0.164-0.166,0.345-0.316,0.511-0.48c3.598-3.496,7.055-7.377,10.307-11.574
		c0.135-0.165,0.269-0.331,0.402-0.504c3.283-4.284,6.337-8.89,9.084-13.786c0.049-0.079,0.096-0.166,0.135-0.245
		c2.779-4.991,5.243-10.267,7.283-15.786c4.913-0.889,9.59-3.693,13.448-7.857c0.093-0.102,0.196-0.189,0.29-0.299
		c1.771-1.952,3.307-4.26,4.646-6.756c0.237-0.448,0.45-0.921,0.669-1.386c1.236-2.583,2.308-5.322,2.969-8.321
		c3.599-16.235-3.453-31.627-15.779-34.601v-7.71c0-37.789-30.634-68.423-68.422-68.423h-13.771
		c-37.788,0-68.422,30.634-68.422,68.423v7.667c-12.43,2.876-19.553,18.336-15.938,34.644c0.66,2.999,1.731,5.746,2.968,8.321
		c0.222,0.465,0.433,0.938,0.669,1.386c1.339,2.504,2.882,4.804,4.647,6.764c0.093,0.102,0.188,0.181,0.283,0.282
		c3.857,4.165,8.541,6.977,13.455,7.866c2.039,5.527,4.512,10.817,7.299,15.818c0.031,0.055,0.063,0.117,0.102,0.181
		c2.748,4.921,5.826,9.542,9.125,13.841c0.111,0.158,0.237,0.301,0.355,0.457c3.259,4.205,6.732,8.095,10.338,11.606
		c0.166,0.156,0.33,0.307,0.496,0.464c3.645,3.496,7.408,6.645,11.227,9.339l-0.379,1.826c-0.778-0.441-1.622-0.74-2.448-1.07
		c-1.739-0.631-3.512-1.213-5.418-1.213c-3.148,0-6.211,0.904-8.856,2.629c0,0-11.194,7.393-14.951,9.818
		c-13.605,8.783-11.834,19.006-11.527,23.637c0,0.015,0,0.022,0,0.039c-8.896,0.229-17.377,3.075-24.013,8.369
		c-10.759,8.581-13.953,18.724-14.614,20.873l-26.525,86.474c-3.858,12.581-1.511,26.242,6.306,36.831
		c5.875,7.944,14.307,13.44,23.707,15.692c3.135,0.748,6.369,1.142,9.662,1.142h84.544l-9.346-60.973
		c-1.087-7.055-0.331-14.273,2.198-20.95l8.463-22.407l-10.716-10.717l24.116-24.116l24.116,24.116l-10.724,10.725l8.465,22.391
		c2.526,6.685,3.291,13.904,2.203,20.968l-9.586,60.964h84.786c3.291,0,6.527-0.393,9.66-1.142
		c9.401-2.252,17.835-7.748,23.707-15.692c5.874-7.943,8.652-17.612,8.046-27.257C385.045,390.624,384.471,387.412,383.501,384.263z
		 M233.183,281.334l-38.424,34.202c-0.494,0.44-1.125,0.669-1.762,0.669c-0.309,0-0.615-0.048-0.914-0.158
		c-0.922-0.33-1.582-1.142-1.725-2.11l-6.716-45.272c-0.748-5.069,1.511-10.124,5.804-12.935l14.927-9.796
		c0.535-0.354,1.149-0.52,1.747-0.52c0.938,0,1.859,0.401,2.48,1.166l24.921,30.336
		C234.614,278.247,234.458,280.192,233.183,281.334z M305.491,268.664l-6.716,45.272c-0.142,0.969-0.803,1.78-1.724,2.11
		c-0.3,0.11-0.598,0.158-0.912,0.158c-0.639,0-1.27-0.228-1.765-0.669l-38.414-34.202c-1.284-1.142-1.441-3.087-0.347-4.418
		l24.919-30.336c0.622-0.765,1.544-1.166,2.48-1.166c0.599,0,1.212,0.166,1.747,0.52l14.93,9.796
		C303.981,258.54,306.239,263.595,305.491,268.664z"/>
</g>
</svg>